/* XPM */
static char * close_prelight_xpm[] = {
"35 24 6 1",
" 	c #33AEFF",
".	c #1875C7",
"+	c #64ADED",
"@	c #75B6EF",
"#	c #288DE6",
"$	c #3F99E8",
"                                   ",
"                                   ",
"                                   ",
"                                   ",
"                  ..               ",
"                 ....              ",
"                .....              ",
"               .....               ",
"              .....                ",
"           +......                 ",
"          @#.....                  ",
"          $.....                   ",
"          ......                   ",
"         ......                    ",
"        ......                     ",
"       .....                       ",
"      .....                        ",
"     .....                         ",
"     ....                          ",
"      ..                           ",
"                                   ",
"                                   ",
"                                   ",
"                                   "};
