/* XPM */
static char * close_active_xpm[] = {
"35 24 7 1",
" 	c #33AEFF",
".	c #12171E",
"+	c #2783C1",
"@	c #33ADFE",
"#	c #2C95DB",
"$	c #184466",
"%	c #1E5C87",
"                                   ",
"                                   ",
"                                   ",
"                                   ",
"                 ..                ",
"                ....               ",
"               .....               ",
"              .....                ",
"             .....                 ",
"          +......                  ",
"        @#$.....                   ",
"         %.....                    ",
"         ......                    ",
"        ......                     ",
"       ......                      ",
"      .....                        ",
"     .....                         ",
"    .....                          ",
"    ....                           ",
"     ..                            ",
"                                   ",
"                                   ",
"                                   ",
"                                   "};
