/* XPM */
static char * maximize_prelight_xpm[] = {
"24 24 6 1",
" 	c #33AEFF",
".	c #2879CD",
"+	c #79AEE5",
"@	c #74B4F0",
"#	c #458FDB",
"$	c #599BDE",
"                        ",
"                        ",
"                        ",
"                        ",
"                 ..     ",
"                ....    ",
"               .....    ",
"              .....     ",
"             .....      ",
"          +......       ",
"         @#.....        ",
"         $.....         ",
"         ......         ",
"        ......          ",
"       ......           ",
"      .....             ",
"     .....              ",
"    .....               ",
"    ....                ",
"     ..                 ",
"                        ",
"                        ",
"                        ",
"                        "};
