/* XPM */
static char * shade_active_xpm[] = {
"24 24 25 1",
" 	c #12171E",
".	c #1B537B",
"+	c #2B93D9",
"@	c #33AEFF",
"#	c #2271A7",
"$	c #30A4F1",
"%	c #194667",
"&	c #2A8DD0",
"*	c #2479B2",
"=	c #32A9F8",
"-	c #20689A",
";	c #2F9FE9",
">	c #206697",
",	c #257CB7",
"'	c #15344D",
")	c #2D99E0",
"!	c #2371A7",
"~	c #31AAF8",
"{	c #2D97DE",
"]	c #2271A6",
"^	c #31A8F7",
"/	c #2A8CCE",
"(	c #2F9EE8",
"_	c #33ADFE",
":	c #2887C7",
"     .+@@@@@@@@@@@@@@@@@",
"      #$@@@@@@@@@@@@@@@@",
"      %&@@@@@@@@@@@@@@@@",
"       *=@@@@@@@@@@@@@@@",
"       -;@@@@@@@@@@@@@@@",
"       .+@@@@@@@@@@@@@@@",
"        &@@@@@@@@@@@@@@@",
"        &@@@@@@@@@@@@@@@",
"        +@@@@@@@@@@@@@@@",
"        ;@@@@@@@@@@@@@@@",
"       >=@@@@@@@@@@@@@@@",
"       ,@@@@@@@@@@@@@@@@",
"      ')@@@@@@@@@@@@@@@@",
"      !~@@@@@@@@@@@@@@@@",
"     %{@@@@@@@@@@@@@@@@@",
"     ]^@@@@@@@@@@@@@@@@@",
"    '/@@@@@@@@@@@@@@@@@@",
"    .(@@@@@@@@@@@@@@@@@@",
"    -~@@@@@@@@@@@@@@@@@@",
"    ]_@@@@@@@@@@@@@@@@@@",
"    ]$@@@@@@@@@@@@@@@@@@",
"    -;@@@@@@@@@@@@@@@@@@",
"    .+@@@@@@@@@@@@@@@@@@",
"    ':@@@@@@@@@@@@@@@@@@"};
